<?xml version="1.0"?>
<svg xmlns="http://www.w3.org/2000/svg" width="230" height="150" viewBox="0 0 230 150" fill="none">
          <defs>
            <filter id="sketch10" x="-20%" y="-20%" width="140%" height="140%">
              <feTurbulence type="fractalNoise" baseFrequency="0.05" numOctaves="2" seed="118" result="n"></feTurbulence>
              <feDisplacementMap in="SourceGraphic" in2="n" scale="3.2"></feDisplacementMap>
            </filter>
          </defs>
          <g filter="url(#sketch10)">
            
            <path d="M115 46 C 100 38, 70 36, 50 42 L 50 122 C 70 116, 100 118, 115 126 Z" fill="#ffffff" stroke="#191919" stroke-width="7" stroke-linejoin="round"></path>
            <path d="M115 46 C 130 38, 160 36, 180 42 L 180 122 C 160 116, 130 118, 115 126 Z" fill="#ffffff" stroke="#191919" stroke-width="7" stroke-linejoin="round"></path>
            <path d="M62 62 L 100 58 M 62 78 L 100 76 M 62 94 L 92 94" stroke="#191919" stroke-width="4" stroke-linecap="round" opacity="0.7"></path>
            
            <g transform="translate(150,84)">
              <circle r="16" fill="#6366f1" stroke="#191919" stroke-width="6"></circle>
              <circle r="5" fill="#ffffff"></circle>
              <path d="M0 -22 L 0 -14 M 0 14 L 0 22 M -22 0 L -14 0 M 14 0 L 22 0 M -15 -15 L -10 -10 M 10 10 L 15 15 M -15 15 L -10 10 M 10 -10 L 15 -15" stroke="#191919" stroke-width="5" stroke-linecap="round"></path>
            </g>
          </g>
        </svg>