<?xml version="1.0"?>
<svg xmlns="http://www.w3.org/2000/svg" width="250" height="220" viewBox="0 0 250 220" fill="none">
          <defs>
            <filter id="sketch6" x="-20%" y="-20%" width="140%" height="140%">
              <feTurbulence type="fractalNoise" baseFrequency="0.05" numOctaves="2" seed="74" result="n"></feTurbulence>
              <feDisplacementMap in="SourceGraphic" in2="n" scale="3.2"></feDisplacementMap>
            </filter>
          </defs>
          <g filter="url(#sketch6)">
            
            <path d="M10 8 C 22 30, 18 54, 8 70" stroke="#191919" stroke-width="4" stroke-linecap="round" fill="none" opacity="0.5"></path>
            <path d="M240 8 C 228 30, 232 54, 242 70" stroke="#191919" stroke-width="4" stroke-linecap="round" fill="none" opacity="0.5"></path>

            
            <path d="M30 34 L 190 34" stroke="#191919" stroke-width="6" stroke-linecap="round"></path>

            
            <path d="M150 34 L 138 58 L 168 58 Z" fill="#ffffff" stroke="#191919" stroke-width="6" stroke-linejoin="round"></path>
            
            <path d="M140 58 L 168 58 L 205 178 L 105 178 Z" fill="#3b82f6" opacity="0.22"></path>
            <path d="M140 58 L 105 178" stroke="#3b82f6" stroke-width="2.5" stroke-dasharray="1 7" opacity="0.7"></path>
            <path d="M168 58 L 205 178" stroke="#3b82f6" stroke-width="2.5" stroke-dasharray="1 7" opacity="0.7"></path>

            
            <circle cx="52" cy="86" r="14" fill="#ffffff" stroke="#191919" stroke-width="6"></circle>
            <circle cx="47" cy="84" r="2" fill="#191919"></circle>
            <circle cx="57" cy="84" r="2" fill="#191919"></circle>
            <path d="M40 122 C 38 108, 44 100, 52 100 C 60 100, 66 108, 64 122 Z" fill="#ffffff" stroke="#191919" stroke-width="6" stroke-linejoin="round"></path>
            <path d="M40 34 L 40 100" stroke="#191919" stroke-width="5" stroke-linecap="round"></path>
            <path d="M62 108 L 84 100" stroke="#191919" stroke-width="6" stroke-linecap="round"></path>
            <path d="M42 122 L 36 148 M 60 122 L 66 148" stroke="#191919" stroke-width="6" stroke-linecap="round"></path>

            
            <rect x="78" y="96" width="26" height="34" rx="4" fill="#ffffff" stroke="#191919" stroke-width="5.5"></rect>
            <path d="M91 126 L 91 100" stroke="#191919" stroke-width="4" stroke-linecap="round" transform="rotate(-28 91 126)"></path>
            <circle cx="99" cy="103" r="5" fill="#3b82f6" stroke="#191919" stroke-width="3"></circle>

            
            <path d="M10 196 L 240 196" stroke="#191919" stroke-width="4" stroke-linecap="round" opacity="0.55"></path>

            
            <ellipse cx="155" cy="196" rx="34" ry="7" fill="#3b82f6" opacity="0.2"></ellipse>
            <path d="M138 190 C 130 190, 127 178, 130 168 C 126 152, 137 136, 155 136 C 173 136, 184 152, 180 168 C 183 178, 180 190, 172 190 Z" fill="#ffffff" stroke="#191919" stroke-width="7" stroke-linejoin="round"></path>
            <circle cx="148" cy="160" r="5.5" fill="#191919"></circle>
            <circle cx="163" cy="160" r="5.5" fill="#191919"></circle>
            <path d="M147 173 Q 155 179, 165 173" stroke="#191919" stroke-width="4" stroke-linecap="round" fill="none"></path>
          </g>
        </svg>