<?xml version="1.0"?>
<svg xmlns="http://www.w3.org/2000/svg" width="250" height="240" viewBox="0 0 250 240" fill="none">
          <defs>
            <filter id="sketch2" x="-20%" y="-20%" width="140%" height="140%">
              <feTurbulence type="fractalNoise" baseFrequency="0.05" numOctaves="2" seed="22" result="n"></feTurbulence>
              <feDisplacementMap in="SourceGraphic" in2="n" scale="3.2"></feDisplacementMap>
            </filter>
          </defs>
          <g filter="url(#sketch2)">
            
            <path d="M20 190 L 230 190" stroke="#191919" stroke-width="4" stroke-linecap="round" opacity="0.5"></path>

            
            <path d="M108 186 L 62 214" stroke="#191919" stroke-width="6" stroke-linecap="round"></path>
            <path d="M114 188 L 84 220" stroke="#191919" stroke-width="6" stroke-linecap="round"></path>
            <path d="M126 188 L 156 220" stroke="#191919" stroke-width="6" stroke-linecap="round"></path>
            <path d="M132 186 L 178 214" stroke="#191919" stroke-width="6" stroke-linecap="round"></path>
            <text x="120" y="235" font-family="Noto Sans KR" font-size="15" font-weight="800" fill="#191919" text-anchor="middle">주어</text>

            
            <path d="M107 190 L 112 88 L 128 88 L 133 190 Z" fill="#ff8c1a" stroke="#191919" stroke-width="6.5" stroke-linejoin="round"></path>
            <path d="M76 132 L 105 132" stroke="#191919" stroke-width="4" stroke-linecap="round" opacity="0.7"></path>
            <path d="M97 126 L 107 132 L 97 138" stroke="#191919" stroke-width="4" stroke-linecap="round" stroke-linejoin="round" fill="none" opacity="0.7"></path>
            <text x="60" y="137" font-family="Noto Sans KR" font-size="15" font-weight="800" fill="#191919" text-anchor="middle">동사</text>

            
            <path d="M126 108 C 150 100, 170 84, 188 66" stroke="#191919" stroke-width="6.5" stroke-linecap="round" fill="none"></path>
            <circle cx="196" cy="58" r="17" fill="#ffffff" stroke="#191919" stroke-width="6.5"></circle>
            <text x="196" y="30" font-family="Noto Sans KR" font-size="15" font-weight="800" fill="#191919" text-anchor="middle">목적어</text>
          </g>
        </svg>