<?xml version="1.0"?>
<svg xmlns="http://www.w3.org/2000/svg" width="300" height="250" viewBox="0 0 300 250" fill="none">
          <defs>
            <filter id="sketch7" x="-20%" y="-20%" width="140%" height="140%">
              <feTurbulence type="fractalNoise" baseFrequency="0.05" numOctaves="2" seed="85" result="n"></feTurbulence>
              <feDisplacementMap in="SourceGraphic" in2="n" scale="3.2"></feDisplacementMap>
            </filter>
          </defs>
          <g filter="url(#sketch7)">
            
            <rect x="6" y="100" width="56" height="32" rx="5" fill="#ffffff" stroke="#191919" stroke-width="6.5"></rect>
            <text x="34" y="121" font-family="Noto Sans KR" font-size="14" font-weight="700" fill="#191919" text-anchor="middle">문장</text>
            <path d="M62 116 L 88 116" stroke="#191919" stroke-width="5" stroke-linecap="round"></path>
            <path d="M80 109 L 90 116 L 80 123" stroke="#191919" stroke-width="5" stroke-linecap="round" stroke-linejoin="round" fill="none"></path>

            
            <path d="M124 86 L 148 101 L 148 131 L 124 146 L 100 131 L 100 101 Z" fill="#a855f7" stroke="#191919" stroke-width="6.5" stroke-linejoin="round"></path>
            <text x="124" y="172" font-family="Noto Sans KR" font-size="13" font-weight="800" fill="#191919" text-anchor="middle">접속사</text>

            
            <path d="M146 100 L 178 66" stroke="#191919" stroke-width="4.5" stroke-linecap="round"></path>
            <path d="M168 64 L 180 66 L 176 78" stroke="#191919" stroke-width="4.5" stroke-linecap="round" stroke-linejoin="round" fill="none"></path>
            <text x="178" y="34" font-family="Noto Sans KR" font-size="12.5" font-weight="700" fill="#191919" text-anchor="middle" opacity="0.7">연결</text>
            <rect x="188" y="40" width="48" height="30" rx="5" fill="#ffffff" stroke="#191919" stroke-width="6"></rect>
            <text x="212" y="60" font-family="Noto Sans KR" font-size="12" font-weight="700" fill="#191919" text-anchor="middle">문장</text>
            <path d="M242 51 L 254 51 M 242 59 L 254 59" stroke="#191919" stroke-width="4" stroke-linecap="round" opacity="0.7"></path>
            <rect x="258" y="40" width="30" height="30" rx="5" fill="#ffffff" stroke="#191919" stroke-width="6"></rect>

            
            <path d="M146 132 L 174 152" stroke="#191919" stroke-width="4.5" stroke-linecap="round"></path>
            <path d="M170 142 L 178 154 L 164 156" stroke="#191919" stroke-width="4.5" stroke-linecap="round" stroke-linejoin="round" fill="none"></path>
            <text x="150" y="163" font-family="Noto Sans KR" font-size="12.5" font-weight="700" fill="#191919" text-anchor="middle" opacity="0.7">변신</text>

            <rect x="184" y="150" width="72" height="28" rx="14" fill="#ffffff" stroke="#191919" stroke-width="5.5"></rect>
            <text x="220" y="169" font-family="Noto Sans KR" font-size="13" font-weight="700" fill="#191919" text-anchor="middle">명사절</text>

            <rect x="184" y="184" width="88" height="28" rx="14" fill="#ffffff" stroke="#191919" stroke-width="5.5"></rect>
            <text x="228" y="203" font-family="Noto Sans KR" font-size="13" font-weight="700" fill="#191919" text-anchor="middle">형용사절</text>

            <rect x="184" y="218" width="72" height="28" rx="14" fill="#ffffff" stroke="#191919" stroke-width="5.5"></rect>
            <text x="220" y="237" font-family="Noto Sans KR" font-size="13" font-weight="700" fill="#191919" text-anchor="middle">부사절</text>
          </g>
        </svg>