<?xml version="1.0"?>
<svg xmlns="http://www.w3.org/2000/svg" width="230" height="160" viewBox="0 0 230 160" fill="none">
          <defs>
            <filter id="sketch4" x="-20%" y="-20%" width="140%" height="140%">
              <feTurbulence type="fractalNoise" baseFrequency="0.05" numOctaves="2" seed="51" result="n"></feTurbulence>
              <feDisplacementMap in="SourceGraphic" in2="n" scale="3.2"></feDisplacementMap>
            </filter>
          </defs>
          <g filter="url(#sketch4)">
            
            <path d="M52 78 L 52 138 L 118 138 L 118 78 Z" fill="#ffffff" stroke="#191919" stroke-width="7" stroke-linejoin="round"></path>
            <path d="M52 78 L 74 58 L 140 58 L 118 78 Z" fill="#ffffff" stroke="#191919" stroke-width="7" stroke-linejoin="round"></path>
            <path d="M118 78 L 140 58 L 140 118 L 118 138 Z" fill="#f2f2f0" stroke="#191919" stroke-width="7" stroke-linejoin="round"></path>
            <text x="60" y="112" font-family="Noto Sans KR" font-size="19" font-weight="800" fill="#191919">명사</text>

            
            <path d="M140 60 C 158 60, 168 70, 172 84" stroke="#191919" stroke-width="3.5" fill="none" opacity="0.7"></path>
            <g transform="rotate(14 194 96)">
              <rect x="172" y="80" width="46" height="30" rx="5" fill="#22c55e" stroke="#191919" stroke-width="6"></rect>
              <circle cx="181" cy="95" r="2.6" fill="#ffffff"></circle>
              <path d="M190 90 Q 200 95, 210 90" stroke="#ffffff" stroke-width="3.5" stroke-linecap="round" fill="none"></path>
              <path d="M175 108 L 215 84" stroke="#ffffff" stroke-width="4" stroke-linecap="round"></path>
            </g>
          </g>
        </svg>